<svg width="95" height="34" viewBox="0 0 95 34" fill="none" xmlns="http://www.w3.org/2000/svg">
<path d="M32.92 31V25.57H33.66L33.75 26.36H33.78C34.25 25.85 34.82 25.44 35.47 25.44C36.3 25.44 36.75 25.83 36.96 26.47C37.53 25.87 38.1 25.44 38.76 25.44C39.87 25.44 40.41 26.18 40.41 27.56V31H39.5V27.68C39.5 26.66 39.18 26.23 38.48 26.23C38.06 26.23 37.63 26.51 37.12 27.06V31H36.21V27.68C36.21 26.66 35.89 26.23 35.19 26.23C34.78 26.23 34.32 26.51 33.83 27.06V31H32.92ZM43.4278 31.14C42.5178 31.14 41.8378 30.57 41.8378 29.59C41.8378 28.41 42.8578 27.82 45.1678 27.56C45.1678 26.86 44.9478 26.19 44.0578 26.19C43.4178 26.19 42.8478 26.49 42.4278 26.78L42.0678 26.14C42.5678 25.82 43.3278 25.44 44.1978 25.44C45.5278 25.44 46.0878 26.32 46.0878 27.67V31H45.3378L45.2578 30.36H45.2178C44.7078 30.79 44.0978 31.14 43.4278 31.14ZM43.6778 30.4C44.2078 30.4 44.6478 30.15 45.1678 29.68V28.17C43.3378 28.38 42.7278 28.83 42.7278 29.53C42.7278 30.15 43.1478 30.4 43.6778 30.4ZM49.6526 31.14C48.2926 31.14 47.4126 30.11 47.4126 28.3C47.4126 26.53 48.5326 25.44 49.7726 25.44C50.4026 25.44 50.8226 25.67 51.2926 26.07L51.2526 25.13V23.05H52.1626V31H51.4126L51.3326 30.36H51.3126C50.8826 30.79 50.3126 31.14 49.6526 31.14ZM49.8526 30.37C50.3626 30.37 50.8026 30.12 51.2526 29.63V26.78C50.7926 26.36 50.3726 26.2 49.9226 26.2C49.0526 26.2 48.3626 27.05 48.3626 28.29C48.3626 29.59 48.9026 30.37 49.8526 30.37ZM56.2038 31.14C54.7538 31.14 53.6038 30.08 53.6038 28.3C53.6038 26.53 54.7938 25.44 56.0438 25.44C57.4238 25.44 58.2038 26.43 58.2038 27.99C58.2038 28.18 58.1938 28.37 58.1638 28.51H54.5038C54.5738 29.66 55.2738 30.41 56.3138 30.41C56.8338 30.41 57.2638 30.24 57.6638 29.97L57.9938 30.58C57.5138 30.89 56.9438 31.14 56.2038 31.14ZM54.4938 27.85H57.4038C57.4038 26.76 56.9138 26.17 56.0538 26.17C55.2938 26.17 54.6138 26.78 54.4938 27.85ZM64.1672 31.14C63.6672 31.14 63.0972 30.88 62.6272 30.44H62.5972L62.5072 31H61.7872V23.05H62.6972V25.22L62.6572 26.2C63.1572 25.77 63.7572 25.44 64.3672 25.44C65.7672 25.44 66.5272 26.53 66.5272 28.2C66.5272 30.06 65.4172 31.14 64.1672 31.14ZM64.0272 30.37C64.9172 30.37 65.5872 29.56 65.5872 28.22C65.5872 27.01 65.1772 26.2 64.1472 26.2C63.6872 26.2 63.2072 26.46 62.6972 26.95V29.81C63.1672 30.22 63.6672 30.37 64.0272 30.37ZM67.9805 33.35C67.7305 33.35 67.5205 33.31 67.3505 33.24L67.5305 32.51C67.6305 32.55 67.7905 32.59 67.9405 32.59C68.5505 32.59 68.9405 32.09 69.1705 31.42L69.2905 31.01L67.1105 25.57H68.0505L69.1605 28.59C69.3305 29.07 69.5105 29.62 69.6905 30.12H69.7405C69.8905 29.62 70.0505 29.08 70.1905 28.59L71.1705 25.57H72.0605L70.0105 31.46C69.6305 32.53 69.0705 33.35 67.9805 33.35ZM78.2016 31.14C76.3716 31.14 75.0116 29.72 75.0116 27.34C75.0116 24.98 76.4016 23.54 78.2616 23.54C79.1516 23.54 79.8416 23.97 80.2716 24.44L79.7616 25.04C79.3816 24.63 78.8916 24.35 78.2716 24.35C76.8816 24.35 75.9616 25.49 75.9616 27.32C75.9616 29.17 76.8416 30.32 78.2416 30.32C78.9316 30.32 79.4716 30.02 79.9416 29.5L80.4416 30.08C79.8616 30.76 79.1516 31.14 78.2016 31.14ZM81.8086 31V23.67H84.0986C85.5886 23.67 86.6586 24.21 86.6586 25.73C86.6586 27.2 85.5886 27.9 84.0986 27.9H82.7386V31H81.8086ZM82.7386 27.15H83.9686C85.1086 27.15 85.7386 26.68 85.7386 25.73C85.7386 24.77 85.1086 24.43 83.9686 24.43H82.7386V27.15ZM85.8386 31L83.9186 27.65L84.6386 27.17L86.8786 31H85.8386ZM87.1179 31L89.5979 23.67H90.6379L93.1179 31H92.1479L90.8579 26.9C90.5979 26.08 90.3679 25.28 90.1279 24.43H90.0879C89.8479 25.28 89.6179 26.08 89.3479 26.9L88.0579 31H87.1179ZM88.4179 28.76V28.03H91.7979V28.76H88.4179Z" fill="#707070"/>
<path d="M36.4601 3.80083C33.2871 1.73446 27.6727 0.61499 19.7918 0.61499C11.911 0.61499 6.35044 1.73446 3.11912 3.80083C1.01876 5.08844 0 6.81853 0 8.83181C0 10.8451 1.01876 12.5221 3.11912 13.8628C6.35044 15.8761 11.9065 16.9911 19.7873 16.9911C27.6682 16.9911 33.2826 15.8716 36.4556 13.8628C38.5514 12.5221 39.5747 10.7876 39.5747 8.83181C39.5747 6.87605 38.5559 5.08844 36.4556 3.80083H36.4601ZM35.8362 12.7433C32.8877 14.6991 27.5021 15.8185 19.7918 15.8185C12.0815 15.8185 6.69153 14.6991 3.80129 12.7433C2.1587 11.6814 1.36434 10.2831 1.36434 8.83181C1.36434 7.38048 2.1587 5.92473 3.80129 4.86278C6.69153 2.96012 12.0815 1.78756 19.7918 1.78756C27.5021 1.78756 32.8877 2.96012 35.8362 4.86278C37.425 5.92473 38.2149 7.32296 38.2149 8.83181C38.2149 10.3407 37.4205 11.6814 35.8362 12.7433Z" fill="#707070"/>
<path d="M90.8853 3.24336C87.7123 1.11947 82.0395 0 74.217 0C66.3945 0 60.7801 1.11947 57.5488 3.24336C55.5651 4.58407 54.4297 6.37611 54.4297 8.5C54.4297 10.6239 55.5651 12.469 57.5488 13.7566C60.7801 15.9381 66.3945 17 74.217 17C82.0395 17 87.7123 15.9381 90.8853 13.7566C92.9273 12.469 94.0044 10.6814 94.0044 8.5C94.0044 6.31858 92.9273 4.5885 90.8853 3.24336ZM90.1492 12.7478C87.259 14.7611 81.8151 15.823 74.217 15.823C66.6189 15.823 61.1751 14.7611 58.2848 12.7478C56.6422 11.6283 55.7895 10.2345 55.7895 8.5C55.7895 6.76549 56.6422 5.42478 58.2848 4.25221C61.1751 2.29646 66.6189 1.23451 74.217 1.23451C81.8151 1.23451 87.259 2.29646 90.1492 4.25221C91.7963 5.42478 92.6445 6.76991 92.6445 8.5C92.6445 10.2301 91.7963 11.6283 90.1492 12.7478Z" fill="#707070"/>
<path d="M24.2977 17.0044C28.0578 17.0044 31.1059 13.9991 31.1059 10.292C31.1059 6.58483 28.0578 3.57959 24.2977 3.57959C20.5376 3.57959 17.4895 6.58483 17.4895 10.292C17.4895 13.9991 20.5376 17.0044 24.2977 17.0044Z" fill="#707070"/>
<path d="M76.8292 16.7434C80.5893 16.7434 83.6374 13.7381 83.6374 10.031C83.6374 6.32384 80.5893 3.3186 76.8292 3.3186C73.0691 3.3186 70.021 6.32384 70.021 10.031C70.021 13.7381 73.0691 16.7434 76.8292 16.7434Z" fill="#707070"/>
<path d="M22.7628 4.74341C22.7628 4.74341 22.2557 9.39828 18.6877 9.79651C18.6877 9.79651 22.9648 11.3186 22.9648 15.1195C22.9648 15.1195 23.1353 10.2301 27.0712 9.89828C27.0712 9.89828 22.8929 8.96022 22.7583 4.74341H22.7628Z" fill="#D9D9D9"/>
</svg>
