<svg width="211" height="54" viewBox="0 0 211 54" fill="none" xmlns="http://www.w3.org/2000/svg">
<g id="Layer_1" clip-path="url(#clip0_726_545)">
<path id="Vector" d="M27.1733 51.7484C30.7747 51.7484 33.6942 48.8289 33.6942 45.2275C33.6942 41.6261 30.7747 38.7065 27.1733 38.7065C23.5719 38.7065 20.6523 41.6261 20.6523 45.2275C20.6523 48.8289 23.5719 51.7484 27.1733 51.7484Z" fill="#231F20"/>
<path id="Vector_2" d="M82.8276 51.3209C86.429 51.3209 89.3485 48.4014 89.3485 44.8C89.3485 41.1986 86.429 38.2791 82.8276 38.2791C79.2262 38.2791 76.3066 41.1986 76.3066 44.8C76.3066 48.4014 79.2262 51.3209 82.8276 51.3209Z" fill="#231F20"/>
<path id="Vector_3" d="M26.2596 40.2069C26.2596 40.2069 25.8153 44.339 22.689 44.6994C22.689 44.6994 26.4356 46.0489 26.4356 49.4267C26.4356 49.4267 26.5864 45.085 30.0313 44.7833C30.0313 44.7833 26.3685 43.9535 26.2512 40.1985L26.2596 40.2069Z" fill="white"/>
<path id="Vector_4" d="M42.0005 6.03484H7.94582V15.1122H42.3358V18.9426H24.9187V25.7653H45.437V29.6544H0V25.7653H20.3507V18.9426H3.43648V2.14575H42.0005V6.03484ZM2.4223 44.3642C2.4223 41.5982 3.72146 39.5699 6.20243 38.1031C9.63891 36.0747 15.2798 35.1192 22.773 35.1192C30.2662 35.1192 35.8484 36.0747 39.2932 38.1031C41.7742 39.5699 43.1237 41.5982 43.1237 44.3642C43.1237 47.1301 41.7742 49.1585 39.2932 50.6756C35.8568 52.7039 30.2746 53.5505 22.773 53.5505C15.2714 53.5505 9.63891 52.7039 6.20243 50.6756C3.72146 49.1501 2.4223 47.0715 2.4223 44.3642ZM6.99031 44.3642C6.99031 45.6633 7.66922 46.7278 8.96 47.5241C11.441 49.0495 16.0593 49.7787 22.773 49.7787C29.4867 49.7787 34.105 49.0495 36.586 47.5241C37.9354 46.7362 38.5557 45.6633 38.5557 44.3642C38.5557 43.065 37.9354 42.0508 36.586 41.2043C34.105 39.6788 29.4867 38.9496 22.773 38.9496C16.0593 38.9496 11.441 39.6788 8.96 41.2043C7.66084 42.0508 6.99031 43.1237 6.99031 44.3642Z" fill="#231F20"/>
<path id="Vector_5" d="M54.1206 28.0199V24.1309H70.1883V13.2515H74.7563V24.1309H99.5576V28.0199H54.1206ZM56.5429 44.0876C56.5429 41.0451 58.0684 38.958 60.6583 37.4326C64.2121 35.4042 69.9033 34.499 76.8936 34.499C83.8839 34.499 89.575 35.4042 93.1289 37.4326C95.7188 38.958 97.2443 41.0367 97.2443 44.0876C97.2443 47.1385 95.7188 49.2172 93.1289 50.684C89.575 52.771 83.8252 53.5589 76.8936 53.5589C69.9619 53.5589 64.2121 52.771 60.6583 50.684C58.0684 49.2172 56.5429 47.0212 56.5429 44.0876ZM91.6034 11.4997V6.14381H57.1548V2.14575H96.1127V11.3321C96.1127 14.098 95.8278 17.4171 95.3249 19.6215H90.8742C91.3855 17.3669 91.6034 14.1567 91.6034 11.4997ZM61.1025 44.0876C61.1025 45.4957 61.8317 46.6272 63.1896 47.4738C65.7292 49.0495 70.4649 49.7871 76.8852 49.7871C83.3056 49.7871 87.9909 49.0579 90.5306 47.4738C91.9387 46.6272 92.6763 45.5041 92.6763 44.0876C92.6763 42.6711 91.9387 41.548 90.5306 40.6511C87.9909 39.0754 83.2553 38.3378 76.8852 38.3378C70.5151 38.3378 65.7208 39.067 63.1896 40.6511C61.8401 41.5563 61.1025 42.6208 61.1025 44.0876Z" fill="#231F20"/>
<path id="Vector_6" d="M110.211 18.6073C110.211 16.6879 111.057 15.1121 112.583 13.9806C114.837 12.2372 118.668 11.332 123.177 11.332C127.686 11.332 131.525 12.2372 133.78 13.9806C135.305 15.1121 136.152 16.6879 136.152 18.6073C136.152 20.5267 135.305 22.1024 133.78 23.2843C131.919 24.7511 128.986 25.5976 125.49 25.8742V30.6685H133.721C138.566 30.6685 142.572 29.6543 144.659 28.2462V1.57575H149.169V17.3584H156.947V21.3649H149.169V36.5273H144.659V31.733C142.237 33.5937 138.398 34.4403 132.648 34.4403H108.065V30.6601H120.914V25.8658C117.419 25.5808 114.435 24.7343 112.574 23.2759C111.049 22.0941 110.202 20.5686 110.202 18.5989L110.211 18.6073ZM125.541 0V4.8446H137.552V8.39843H108.911V4.8446H120.973V0H125.541ZM111.501 40.4751H149.16V52.8799H144.651V44.1378H111.501V40.4751ZM114.494 18.5989C114.494 19.4455 114.829 20.1244 115.508 20.7446C116.916 21.8761 119.623 22.5467 123.177 22.5467C126.731 22.5467 129.438 21.8678 130.846 20.7446C131.525 20.1244 131.86 19.4455 131.86 18.5989C131.86 17.7524 131.525 17.1321 130.846 16.5119C129.438 15.3804 126.731 14.7098 123.177 14.7098C119.623 14.7098 116.916 15.3887 115.508 16.5119C114.829 17.1321 114.494 17.7524 114.494 18.5989Z" fill="#231F20"/>
<path id="Vector_7" d="M203.28 1.57581V13.3018H211V17.3082H203.28V30.2746H198.771V1.57581H203.28Z" fill="#231F20"/>
<path id="Vector_8" d="M189.015 2.14575H163.367V6.09352H189.015V2.14575Z" fill="#231F20"/>
<path id="Vector_9" d="M165.58 41.9L175.353 5.74146L203.004 38.0779L165.58 41.9Z" fill="#FEED54"/>
<path id="Vector_10" d="M200.8 35.9658C197.363 33.4848 191.781 32.303 185.126 32.303C178.471 32.303 172.889 33.4848 169.393 35.9658C167.021 37.6002 165.613 39.9135 165.613 42.8471C165.613 45.7807 167.021 48.094 169.393 49.7787C172.889 52.201 178.471 53.2739 185.126 53.2739C191.781 53.2739 197.363 52.201 200.8 49.7787C203.172 48.0856 204.58 45.7723 204.58 42.8471C204.58 39.9219 203.172 37.6086 200.8 35.9658Z" fill="#F9CF52"/>
</g>
<defs>
<clipPath id="clip0_726_545">
<rect width="211" height="53.5588" fill="white"/>
</clipPath>
</defs>
</svg>
