<svg width="113" height="122" viewBox="0 0 113 122" fill="none" xmlns="http://www.w3.org/2000/svg">
<g id="Layer_1" clip-path="url(#clip0_276_82)">
<path id="Vector" d="M103.75 82.8985H112.85V84.1985H103.75V99.8579H102.331V69.1548H103.75V82.8985Z" fill="#231F20"/>
<path id="Vector_2" d="M5.44793 1.29996V14.8555H45.1229V16.1555H25.0673V26.6835H48.7834V28.0433H0V26.6835H23.5877V16.1555H3.9598V0H44.815V1.29996H5.44793Z" fill="#231F20"/>
<path id="Vector_3" d="M42.6514 40.487C39.1876 38.1949 33.0555 36.9548 24.4517 36.9548C15.8479 36.9548 9.78421 38.1949 6.25203 40.487C3.95997 41.9067 2.84814 43.831 2.84814 46.0546C2.84814 48.2782 3.95997 50.1426 6.25203 51.6222C9.78421 53.8544 15.8479 55.0859 24.4517 55.0859C33.0555 55.0859 39.1876 53.8458 42.6514 51.6222C44.9435 50.1341 46.0553 48.2183 46.0553 46.0546C46.0553 43.8908 44.9435 41.9067 42.6514 40.487ZM41.9672 50.3907C38.7515 52.5544 32.8674 53.7945 24.4517 53.7945C16.0361 53.7945 10.152 52.5544 6.9961 50.3907C5.20008 49.2104 4.33628 47.671 4.33628 46.0546C4.33628 44.4382 5.20008 42.8389 6.9961 41.6587C10.152 39.5548 16.0361 38.2548 24.4517 38.2548C32.8674 38.2548 38.7515 39.5548 41.9672 41.6587C43.7033 42.8389 44.5672 44.3783 44.5672 46.0546C44.5672 47.7309 43.7033 49.2104 41.9672 50.3907Z" fill="#231F20"/>
<path id="Vector_4" d="M59.4229 24.7593H78.358V11.8879H79.8462V24.7593H108.198V26.1191H59.4229V24.7593Z" fill="#231F20"/>
<path id="Vector_5" d="M102.75 1.29996H63.0063V0H104.229V8.9116C104.229 11.6313 103.862 15.4713 103.485 17.8232H101.997C102.493 15.4114 102.741 11.6313 102.741 8.9116V1.29996H102.75Z" fill="#231F20"/>
<path id="Vector_6" d="M102.074 39.8628C98.61 37.5109 92.418 36.2708 83.8741 36.2708C75.3301 36.2708 69.2066 37.5109 65.6744 39.8628C63.5106 41.3509 62.2705 43.3265 62.2705 45.6784C62.2705 48.0303 63.5106 50.0743 65.6744 51.494C69.2066 53.9058 75.3301 55.086 83.8741 55.086C92.418 55.086 98.61 53.9058 102.074 51.494C104.306 50.0743 105.478 48.0902 105.478 45.6784C105.478 43.2666 104.297 41.3423 102.074 39.8628ZM101.27 50.3822C98.114 52.6144 92.17 53.7861 83.8741 53.7861C75.5782 53.7861 69.6342 52.6058 66.4783 50.3822C64.6823 49.1421 63.7586 47.5941 63.7586 45.6784C63.7586 43.7627 64.6909 42.2745 66.4783 40.9746C69.6342 38.8108 75.5782 37.6306 83.8741 37.6306C92.17 37.6306 98.114 38.8108 101.27 40.9746C103.066 42.2745 103.99 43.7627 103.99 45.6784C103.99 47.5941 103.066 49.1421 101.27 50.3822Z" fill="#231F20"/>
<path id="Vector_7" d="M17.4985 64.7417V70.7455H31.67V72.0455H1.77051V70.7455H16.0104V64.7417H17.4985Z" fill="#231F20"/>
<path id="Vector_8" d="M44.3615 110.369V121.572H42.9333V111.669H4.61816V110.369H44.3615Z" fill="#231F20"/>
<path id="Vector_9" d="M64.041 111.421L78.948 68.5562L104.34 107.692L64.041 111.421Z" fill="#FEED54"/>
<path id="Vector_10" d="M92.9312 67.1106H66.3843V68.5046H92.9312V67.1106Z" fill="#231F20"/>
<path id="Vector_11" d="M101.244 104.485C97.7119 102.133 92.0245 100.833 84.6523 100.833C77.28 100.833 71.5926 102.133 68.1203 104.485C65.5204 106.281 64.0322 108.633 64.0322 111.421C64.0322 114.209 65.5204 116.501 68.1203 118.288C71.5841 120.7 77.28 122 84.6523 122C92.0245 122 97.7119 120.7 101.244 118.288C103.784 116.492 105.264 114.2 105.264 111.421C105.264 108.641 103.776 106.281 101.244 104.485Z" fill="#F9CF52"/>
<path id="Vector_12" d="M29.3779 55.1031C33.4825 55.1031 36.81 51.7757 36.81 47.6711C36.81 43.5665 33.4825 40.239 29.3779 40.239C25.2733 40.239 21.9458 43.5665 21.9458 47.6711C21.9458 51.7757 25.2733 55.1031 29.3779 55.1031Z" fill="#231F20"/>
<path id="Vector_13" d="M86.7221 54.8123C90.8268 54.8123 94.1543 51.4849 94.1543 47.3803C94.1543 43.2757 90.8268 39.9482 86.7221 39.9482C82.6175 39.9482 79.29 43.2757 79.29 47.3803C79.29 51.4849 82.6175 54.8123 86.7221 54.8123Z" fill="#231F20"/>
<path id="Vector_14" d="M27.7017 41.5305C27.7017 41.5305 27.1458 46.6791 23.2544 47.1238C23.2544 47.1238 27.9241 48.8086 27.9241 53.0164C27.9241 53.0164 28.1122 47.6027 32.4055 47.235C32.4055 47.235 27.8471 46.2001 27.7017 41.5305Z" fill="white"/>
<path id="Vector_15" d="M44.3619 84.549V66.4778H42.9422V95.8211C39.3501 98.173 34.4581 99.2848 28.2062 99.2848H17.3702V91.4251C21.7662 91.3653 25.2898 90.4331 27.4622 88.8252C29.1983 87.645 30.122 86.0371 30.122 84.1813C30.122 82.3254 29.1983 80.7175 27.4622 79.5373C25.1701 77.8696 21.3985 76.9374 16.6946 76.9374C11.9907 76.9374 8.21053 77.8696 5.91847 79.5373C4.18231 80.7175 3.25865 82.3254 3.25865 84.1813C3.25865 86.0371 4.18231 87.645 5.91847 88.8252C8.08225 90.3732 11.5546 91.3054 15.8821 91.4251V99.2848H0.658691V100.585H28.2062C34.4581 100.585 39.658 99.5328 42.9422 97.121V103.741H44.3619V85.9088H53.4617V84.549H44.3619ZM4.60139 84.1642C4.60139 80.7945 9.93813 78.0577 16.5321 78.0577C23.1261 78.0577 28.4628 80.7945 28.4628 84.1642C28.4628 87.5338 23.1261 90.2706 16.5321 90.2706C9.93813 90.2706 4.60139 87.5338 4.60139 84.1642Z" fill="#231F20"/>
</g>
<defs>
<clipPath id="clip0_276_82">
<rect width="112.85" height="122" fill="white"/>
</clipPath>
</defs>
</svg>
